<?xml version="1.0" standalone="no"?><!DOCTYPE svg PUBLIC "-//W3C//DTD SVG 1.1//EN" "http://www.w3.org/Graphics/SVG/1.1/DTD/svg11.dtd"><svg t="1525593626927" class="icon" style="" viewBox="0 0 1024 1024" version="1.1" xmlns="http://www.w3.org/2000/svg" p-id="1367" xmlns:xlink="http://www.w3.org/1999/xlink" width="200" height="200"><defs><style type="text/css"></style></defs><path d="M955.232 350.32448H346.48448v608.74752H803.0464V825.90848c0-10.5088 8.50816-19.02208 19.02208-19.02208h133.16352V350.32448z m-242.52928-38.04672l-66.32064-247.5136L60.92416 221.64224l156.87808 585.4528 90.63552-24.2944V350.32448c0-21.0112 17.03552-38.04672 38.04672-38.04672h366.21824z m242.52928 532.65536h-114.14016v114.14016c7.87584 0 15.56736-0.79872 22.99904-2.32064 44.58624-9.12256 81.42592-55.56608 90.5472-100.14592 1.52448-7.42784 0.59392-3.79776 0.59392-11.6736" fill="#FFFFFF" p-id="1368"></path><path d="M841.09312 959.072c63.03488 0 114.14016-51.10528 114.14016-114.14016h-114.14016v114.14016zM346.48448 350.32448v608.74752H803.0464V825.90848c0-10.5088 8.50816-19.02208 19.02208-19.02208h133.16352V350.32448H346.48448z" fill="#F7D54A" p-id="1369"></path><path d="M879.13984 902.00192h19.02208v-19.02336h-19.02208v19.02336z m38.04672-38.04544H898.1632v19.02208h19.02336v-19.02208z m-76.09344 0h19.02336v-19.02336h-19.02336v19.02336z m0 76.09344h19.02336v-19.02336h-19.02336v19.02336z m107.50848-57.07136a113.9968 113.9968 0 0 0 4.92416-19.02208h-17.31456v19.02208h12.3904z m-12.39168-38.04544h-19.02336v19.02336h19.02336v-19.02336z m-19.02336 57.0688h19.02336v-19.02336h-19.02336v19.02336z m-19.02464-57.0688h-19.02208v19.02336h19.02208v-19.02336z m-57.0688 57.0688h19.02336v-19.02336h-19.02336v19.02336z m63.04256 38.048h-5.97376v3.63264c2.01728-1.1712 4.03328-2.35136 5.97376-3.63264m-24.99584-38.048h-19.02336v19.02336h19.02336v-19.02336z m60.69248 0h-3.6224v5.97248c1.28128-1.9392 2.46144-3.9552 3.6224-5.97248m-13.83936 19.02464h-8.8064v8.8064a112.09216 112.09216 0 0 0 8.8064-8.8064m-46.85312-57.07008h-19.02336v19.02208h19.02336v-19.02208z m19.02208 57.07008h19.02336V902.0032h-19.02336v19.02336z m-19.02208 19.02336h19.02208v-19.02336h-19.02208v19.02336z m-19.02336 17.31072a113.0688 113.0688 0 0 0 19.02336-4.91904v-12.39168h-19.02336v17.31072zM251.36768 673.7216h19.02336v-19.0208h-19.02336v19.0208z m0 76.09344h19.02336v-19.02208h-19.02336v19.02208z m0-152.18816h19.02336v-19.02336h-19.02336v19.02336z m19.02336 171.21152h19.02336v-19.02336h-19.02336v19.02336z m0-114.13888h19.02336v-19.02336h-19.02336v19.02336z m0 38.04544h19.02336v-19.02336h-19.02336v19.02336z m-19.02336-57.0688h19.02336V616.6528h-19.02336v19.02336z m19.02336 95.1168h19.02336V711.7696h-19.02336v19.02336z m0-114.14016h19.02336v-19.02464h-19.02336v19.02464z m-19.02336 95.1168h19.02336v-19.02464h-19.02336v19.02464z m57.07008-57.07008h-19.02336v19.0208h19.02336v-19.0208z m76.09344-342.42176h19.02336v-19.02336h-19.02336v19.02336z m76.09344 0h19.02464v-19.02336h-19.02464v19.02336z m-38.04672 0h19.02336v-19.02336h-19.02336v19.02336zM251.36768 787.86304h19.02336v-19.02336h-19.02336v19.02336z m57.07008-399.49184h-19.02336v19.02336h19.02336v-19.02336z m38.04672-76.09344h19.02336v-19.02336h-19.02336v19.02336z m266.32832 0h19.02336v-19.02336H612.8128v19.02336z m38.04672 0h19.0208v-19.02336h-19.0208v19.02336z m-76.09344 0h19.0208v-19.02336h-19.0208v19.02336z m-76.09472 0h19.02336v-19.02336h-19.02336v19.02336z m38.048 0h19.02336v-19.02336h-19.02336v19.02336z m-228.2816 38.04672h-19.02336v19.02336h19.02336v-19.02336z m0 342.42048h-19.02336v19.02464h19.02336v-19.02464z m-38.04672-114.14144h19.02336v-19.0208h-19.02336v19.0208z m38.04672 152.18944h-19.02336v19.02208h19.02336v-19.02208z m-38.04672 62.20544l19.02336-5.09824v-0.03712h-19.02336v5.13536z m19.17696-5.13536l18.86976-5.0624v-13.96096h-19.02336v19.02336h0.1536z m18.86976-285.3504h-19.02336v19.02208h19.02336v-19.02208z m0-76.09472h-19.02336v19.02336h19.02336v-19.02336z m0 190.23488h-19.02336v19.02336h19.02336V616.6528z m0-152.18816h-19.02336v19.02464h19.02336v-19.02464z m0 76.09472h-19.02336v19.02336h19.02336v-19.02336z m0 38.04416h-19.02336v19.02336h19.02336v-19.02336z m133.16352-285.34912h19.02208v-19.02336h-19.02208v19.02336z m255.80416-38.04672h-8.50048v19.02336h13.6l-5.09952-19.02336z m-217.75616 0h-19.02464v19.02336h19.02464v-19.02336z m0 38.04672h19.02208v-19.02336h-19.02208v19.02336z m38.04544-38.04672h-19.02336v19.02336h19.02336v-19.02336z m-76.09344 0h-19.02336v19.02336h19.02336v-19.02336z m-38.04672 38.04672h19.02336v-19.02336h-19.02336v19.02336z m114.14016 0h19.02336v-19.02336h-19.02336v19.02336z m-152.18688-38.04672h-19.02336v19.02336h19.02336v-19.02336z m0 38.04672h19.02336v-19.02336h-19.02336v19.02336z m38.04672-38.04672h-19.02336v19.02336h19.02336v-19.02336z m190.23232 38.04672h19.02464v-19.02336h-19.02464v19.02336z m38.04928 0h19.02336v-19.02336h-19.02336v19.02336z m57.0688 0v19.02336h19.02464v-17.80608l-0.3264-1.21728h-18.69824zM251.36768 559.58272h19.02336v-19.02336h-19.02336v19.02336z m304.37504-304.37504h-19.02336v19.02336h19.02336v-19.02336z m114.13888 38.04672h19.02336v-19.02336h-19.02336v19.02336z m-38.04544-38.04672H612.8128v19.02336h19.02336v-19.02336z m-76.09344 38.04672h19.02336v-19.02336h-19.02336v19.02336z m38.04416-38.04672h-19.0208v19.02336h19.0208v-19.02336z m-266.32576 38.04672h19.02336v-19.02336h-19.02336v19.02336z m342.42048-38.04672h-19.0208v19.02336h19.0208v-19.02336z m-418.51392 190.2336h19.02336v-19.02336h-19.02336v19.02336z m19.02336-19.02336h19.02336v-19.02336h-19.02336v19.02336z m-19.02336-19.02336h19.02336v-19.02336h-19.02336v19.02336z m19.02336 57.07008h19.02336v-19.02208h-19.02336v19.02208z m0 76.09472h19.02336V521.536h-19.02336v19.02336z m0-152.18816h19.02336v-19.02336h-19.02336v19.02336z m-19.02336 133.16352h19.02336v-19.02208h-19.02336v19.02208z m19.02336-19.02208h19.02336v-19.02336h-19.02336v19.02336z m-19.02336-19.02336h19.02336v-19.02464h-19.02336v19.02464z m38.04672-152.18816h19.02336v-19.02336h-19.02336v19.02336z m38.04672-76.09344h-19.02336v19.02336h19.02336v-19.02336z m-19.02336 19.02336h-19.02336v19.02336h19.02336v-19.02336z m-19.02336 19.02336h-19.02336v19.02336h19.02336v-19.02336z m19.02336 19.02336h19.02336v-19.02336h-19.02336v19.02336z m-19.02336-57.07008h-19.02336v19.02336h19.02336v-19.02336z m-38.04672 114.14016h19.02336v-19.02336h-19.02336v19.02336z m19.02336-19.02336h19.02336v-19.02336h-19.02336v19.02336z m-19.02336-19.02336h19.02336v-19.02336h-19.02336v19.02336z m0-38.04672h19.02336v-19.02336h-19.02336v19.02336z" fill="" p-id="1370"></path><path d="M517.69472 692.74496c-52.53248 0-95.1168 42.5856-95.1168 95.11808 0 52.53376 42.58432 95.1168 95.1168 95.1168 52.5376 0 95.11808-42.58304 95.11808-95.1168 0-52.53248-42.58048-95.11808-95.11808-95.11808m0 171.21152c-42.02368 0-76.09344-34.07104-76.09344-76.09344s34.06976-76.09216 76.09344-76.09216c42.0224 0 76.09216 34.06976 76.09216 76.09216s-34.06976 76.09344-76.09216 76.09344M707.9296 426.41792H422.57792v19.02336H707.9296v-19.02336zM422.57792 559.58272h456.56192v-19.02336H422.57792v19.02336z m0 57.07008H803.0464v-19.02464H422.57792v19.02464z m0-114.14016h456.56192v-19.02336H422.57792v19.02336z m304.37376 190.23232c-21.00992 0-38.04672 17.0368-38.04672 38.048s17.0368 38.04672 38.04672 38.04672c21.01248 0 38.048-17.03552 38.048-38.04672s-17.03552-38.048-38.048-38.048m0 57.07008c-10.51392 0-19.0208-8.512-19.0208-19.02208s8.50688-19.02208 19.0208-19.02208c10.51648 0 19.02336 8.512 19.02336 19.02208s-8.50816 19.02208-19.02336 19.02208" fill="" p-id="1371"></path><path d="M955.232 312.27776H751.92064L682.97088 54.96064c-5.41696-20.20352-26.18624-32.19968-46.39744-26.784L51.1296 185.04832c-20.21248 5.41568-32.20864 26.18624-26.79808 46.39872L181.2096 816.89472c5.41184 20.2112 26.18624 32.20352 46.39872 26.79424l80.83072-21.66784v137.05088c0 21.01248 17.03552 38.048 38.04672 38.048h494.60864C925.14688 997.12 993.28 928.97792 993.28 844.93312V350.32448c0-21.0112-17.03552-38.04672-38.048-38.04672m-646.79424 38.04672v432.48l-90.63552 24.29056L60.92416 221.64224 646.3808 64.76416l66.32064 247.5136H346.48448c-21.0112 0-38.04672 17.03552-38.04672 38.04672m494.60864 475.584v133.16352H346.48448V350.32448h608.74752V806.8864H822.06848c-10.51392 0-19.02208 8.51328-19.02208 19.02208m38.04672 133.16352v-114.14016h114.14016c-0.00128 63.03616-51.10528 114.14016-114.14016 114.14016" fill="" p-id="1372"></path></svg>